<?xml version="1.0" encoding="UTF-8"?>
<svg id="_レイヤー_2" data-name="レイヤー_2" xmlns="http://www.w3.org/2000/svg" viewBox="0 0 90.13 84.69">
  <defs>
    <style>
      .cls-1 {
        fill: none;
      }

      .cls-2 {
        fill: #ddd;
      }
    </style>
  </defs>
  <g id="_レイヤー_1-2" data-name="レイヤー_1">
    <g>
      <rect class="cls-1" width="90.13" height="84.69"/>
      <path class="cls-2" d="M79.75,44.35v-17.19h-30.37v17.19h13.19v3.81H28.55v-3.81h13.19v-17.19H11.37v17.19h13.19v3.81h-13.19v4h13.19v3.81h-13.19v17.19h30.37v-17.19h-13.19v-3.81h34.01v3.81h-13.19v17.19h30.37v-17.19h-13.19v-3.81h13.19v-4h-13.19v-3.81h13.19ZM15.37,31.15h22.37v9.19H15.37v-9.19ZM37.74,69.15H15.37v-9.19h22.37v9.19ZM75.75,69.15h-22.37v-9.19h22.37v9.19ZM53.37,31.15h22.37v9.19h-22.37v-9.19ZM41.74,24.66H11.37v-4h13.19v-4.29h-13.19v-4h13.19v-5.12h4v5.12h13.19v4h-13.19v4.29h13.19v4ZM79.75,24.66h-30.37v-4h13.19v-4.29h-13.19v-4h13.19v-5.12h4v5.12h13.19v4h-13.19v4.29h13.19v4Z"/>
    </g>
  </g>
</svg>