<?xml version="1.0" encoding="UTF-8"?>
<svg id="_レイヤー_2" data-name="レイヤー_2" xmlns="http://www.w3.org/2000/svg" viewBox="0 0 90.13 84.69">
  <defs>
    <style>
      .cls-1 {
        fill: none;
      }

      .cls-2 {
        fill: #ddd;
      }
    </style>
  </defs>
  <g id="_レイヤー_1-2" data-name="レイヤー_1">
    <g>
      <path class="cls-2" d="M78.35,40.75c-5.12-6.51-14.2-8.48-21.52-4.82.26-2.14-.02-4.36-.87-6.43l-8.02-19.55c-.49-1.2-1.62-1.98-2.88-1.98s-2.38.78-2.88,1.98l-8.02,19.55c-.85,2.07-1.13,4.29-.87,6.43-7.32-3.65-16.4-1.69-21.52,4.82-4.17,5.3-4.92,12.62-1.91,18.65.52,1.03,1.55,1.66,2.67,1.66.22,0,.44-.02.66-.07,1.35-.31,2.31-1.49,2.33-2.88.04-2.23.73-4.4,2-6.27,3.5-5.14,10.38-6.57,15.34-3.19,1.39.95,2.52,2.21,3.32,3.68h-4.72c-1.1,0-2,.9-2,2s.9,2,2,2h5.83c0,.06,0,.11,0,.17.04.76-.15,1.51-.54,2.17h0c-.52.89-1.34,1.52-2.32,1.78-.95.26-1.92.13-2.75-.36-.75-.44-1.31-1.16-1.57-2.01-.33-1.07-1.32-1.75-2.45-1.66-1.12.1-1.99.94-2.13,2.05-.47,3.71,1.48,7.31,4.83,8.97,1.23.61,2.55.9,3.85.9,1.56,0,3.09-.43,4.44-1.21l3.61,7.8c.51,1.11,1.59,1.8,2.82,1.8s2.3-.69,2.82-1.8l3.61-7.8c1.35.78,2.88,1.21,4.44,1.21,1.31,0,2.62-.29,3.85-.9,3.35-1.66,5.29-5.27,4.83-8.97-.14-1.11-1.02-1.95-2.13-2.05-1.11-.1-2.12.58-2.45,1.65-.26.85-.82,1.57-1.57,2.01-1.73,1.02-4,.38-5.07-1.43h0c-.39-.66-.58-1.41-.54-2.17,0-.06,0-.11,0-.17h5.83c1.1,0,2-.9,2-2s-.9-2-2-2h-4.72c.8-1.47,1.93-2.73,3.32-3.68,2.39-1.63,5.3-2.2,8.19-1.61,2.91.6,5.45,2.3,7.15,4.8,1.27,1.87,1.97,4.04,2,6.27.02,1.39.98,2.57,2.33,2.88.22.05.44.07.66.07,1.11,0,2.15-.62,2.66-1.66,3.01-6.03,2.26-13.35-1.91-18.65ZM37.87,31.01l7.2-17.54,7.2,17.54c1.14,2.78.76,6.1-.97,8.44l-6.23,8.42-6.23-8.42c-1.73-2.34-2.11-5.65-.97-8.44ZM14.22,49.58c-.89,1.31-1.57,2.73-2.02,4.21-.63-3.69.31-7.5,2.73-10.57,2.63-3.34,6.6-5.13,10.63-5.13,2.29,0,4.59.58,6.67,1.78,3.42,1.97,5.72,5.28,6.49,8.98-.98-1.36-2.2-2.55-3.61-3.51-6.79-4.62-16.16-2.71-20.9,4.25ZM43,51.8l.38.52h-.39c0-.17,0-.34.01-.52ZM45.06,71.5l-3.14-6.79c-.1-.21-.15-.42-.19-.64.55-.92.94-1.91,1.12-2.94l2.21-2.65,2.21,2.65c.19,1.03.57,2.02,1.12,2.94-.04.22-.1.43-.19.64l-3.14,6.79ZM46.75,52.32l.38-.52c0,.17,0,.34.01.52h-.39ZM77.94,53.79c-.45-1.48-1.13-2.9-2.02-4.21-2.29-3.36-5.72-5.66-9.65-6.47-3.96-.81-7.95-.02-11.25,2.22-1.41.96-2.63,2.15-3.61,3.51.77-3.7,3.08-7,6.49-8.98,5.75-3.32,13.19-1.88,17.31,3.35,2.42,3.07,3.36,6.88,2.73,10.57Z"/>
      <rect class="cls-1" width="90.13" height="84.69"/>
    </g>
  </g>
</svg>