<?xml version="1.0" encoding="UTF-8"?>
<svg id="_レイヤー_2" data-name="レイヤー_2" xmlns="http://www.w3.org/2000/svg" viewBox="0 0 90.13 84.69">
  <defs>
    <style>
      .cls-1 {
        fill: none;
      }

      .cls-2 {
        fill: #ddd;
      }
    </style>
  </defs>
  <g id="_レイヤー_1-2" data-name="レイヤー_1">
    <g>
      <g>
        <path class="cls-2" d="M19.68,39.94c1.73-5.09,6.54-8.77,12.21-8.77,7.11,0,12.9,5.79,12.9,12.9,0,.3-.02.59-.04.88.24-.33.51-.77.7-1.08.49-.8,1.14-1.85,2.06-2.74-1.38-7.37-7.85-12.97-15.62-12.97-8.66,0-15.71,6.96-15.88,15.58.74-1.21,1.84-2.91,3.67-3.81Z"/>
        <rect class="cls-2" x="48.4" y="31.32" width="5.96" height="3" transform="translate(-9.53 30.09) rotate(-30)"/>
        <rect class="cls-2" x="40.17" y="23.09" width="5.96" height="3" transform="translate(.28 49.66) rotate(-60)"/>
        <rect class="cls-2" x="30.39" y="18.59" width="3" height="5.96"/>
        <rect class="cls-2" x="19.14" y="21.61" width="3" height="5.96" transform="translate(-9.53 13.61) rotate(-30)"/>
        <rect class="cls-2" x="10.9" y="29.85" width="3" height="5.96" transform="translate(-22.22 27.15) rotate(-60)"/>
        <g>
          <path class="cls-2" d="M10.03,46.35c.96,1.57,2.28,3.72,4.97,3.72s4-2.15,4.97-3.72c.98-1.59,1.5-2.29,2.41-2.29s1.43.7,2.41,2.29c.96,1.57,2.28,3.72,4.97,3.72s4-2.15,4.97-3.72c.98-1.59,1.5-2.29,2.41-2.29s1.43.7,2.41,2.29c.96,1.57,2.28,3.72,4.97,3.72s4.01-2.15,4.97-3.72c.98-1.59,1.5-2.29,2.41-2.29.77,0,1.27.51,2,1.63l1.31-3.17c-.81-.83-1.86-1.46-3.31-1.46-2.68,0-4,2.15-4.97,3.72-.98,1.59-1.5,2.29-2.41,2.29s-1.43-.7-2.41-2.29c-.96-1.57-2.28-3.72-4.97-3.72s-4,2.15-4.97,3.72c-.98,1.59-1.5,2.29-2.41,2.29s-1.43-.7-2.41-2.29c-.96-1.57-2.28-3.72-4.97-3.72s-4,2.15-4.97,3.72c-.98,1.59-1.5,2.29-2.41,2.29s-1.43-.7-2.41-2.29c-.96-1.57-2.28-3.72-4.97-3.72v3c.91,0,1.43.7,2.41,2.29Z"/>
          <path class="cls-2" d="M49.48,56.22c.06-.09.11-.17.16-.26l2.08-5.01c-2.56.1-3.85,2.17-4.79,3.7-.98,1.59-1.5,2.29-2.41,2.29s-1.43-.7-2.41-2.29c-.96-1.57-2.28-3.72-4.97-3.72s-4,2.15-4.97,3.72c-.98,1.59-1.5,2.29-2.41,2.29s-1.43-.7-2.41-2.29c-.96-1.57-2.28-3.72-4.97-3.72s-4,2.15-4.97,3.72c-.98,1.59-1.5,2.29-2.41,2.29s-1.43-.7-2.41-2.29c-.96-1.57-2.28-3.72-4.97-3.72v3c.91,0,1.43.7,2.41,2.29.96,1.57,2.28,3.72,4.97,3.72s4-2.15,4.97-3.72c.98-1.59,1.5-2.29,2.41-2.29s1.43.7,2.41,2.29c.96,1.57,2.28,3.72,4.97,3.72s4-2.15,4.97-3.72c.98-1.59,1.5-2.29,2.41-2.29s1.43.7,2.41,2.29c.96,1.57,2.28,3.72,4.97,3.72s4.01-2.15,4.97-3.72Z"/>
          <path class="cls-2" d="M76.46,54.65c-.24.4-.46.73-.66,1.02v3.91c1.56-.68,2.49-2.18,3.21-3.36.98-1.59,1.5-2.29,2.41-2.29v-3c-2.68,0-4.01,2.15-4.97,3.72Z"/>
          <path class="cls-2" d="M76.46,44.78c-.24.4-.46.73-.66,1.02v3.91c1.56-.68,2.49-2.18,3.21-3.36.98-1.59,1.5-2.29,2.41-2.29v-3c-2.68,0-4.01,2.15-4.97,3.72Z"/>
        </g>
        <path class="cls-2" d="M72.57,66.83l-20.98-7.12,20.98-50.69v57.81ZM55.58,57.89l13.98,4.75V24.11l-13.98,33.78Z"/>
        <path class="cls-2" d="M77.49,75.67h-43.88l-7.36-10.5h56.26l-5.02,10.5ZM35.18,72.67h40.42l2.15-4.5h-45.73l3.16,4.5Z"/>
      </g>
      <rect class="cls-1" width="90.13" height="84.69"/>
    </g>
  </g>
</svg>