<?xml version="1.0" encoding="UTF-8"?>
<svg id="_レイヤー_2" data-name="レイヤー_2" xmlns="http://www.w3.org/2000/svg" viewBox="0 0 18.89 24.04">
  <defs>
    <style>
      .cls-1 {
        fill: #050101;
      }
    </style>
  </defs>
  <g id="_レイヤー_2-2" data-name="_レイヤー_2">
    <g id="_デザインデータ__x28_台紙面_x29_">
      <g>
        <polygon class="cls-1" points="7.52 12.86 7.52 4.95 8.59 4.33 15.44 8.28 13.31 9.51 9.66 7.4 9.66 11.61 7.53 12.84 7.52 12.86"/>
        <polygon class="cls-1" points="17.68 16.4 17.68 17.15 17.92 17.29 17.68 17.43 17.68 18.18 18.25 17.85 18.25 19.73 16.62 20.67 16.62 20.04 15.97 20.42 15.97 20.67 15.75 20.54 15.1 20.92 15.34 21.06 16.29 21.61 16.29 21.61 18.89 20.11 18.89 17.1 18.89 17.1 17.67 16.4 17.68 16.4"/>
        <polygon class="cls-1" points="14.98 12.33 14.98 17.89 9.65 20.97 9.65 15.41 7.52 16.64 7.52 23.55 8.59 24.04 17.12 19.11 17.12 11.09 14.99 12.32 14.98 12.33"/>
        <polygon class="cls-1" points="17.07 9.23 16 8.61 2.14 16.61 2.14 .62 1.07 0 0 .62 0 19.09 1.07 19.71 9.6 14.78 9.6 14.78 17.06 10.47 17.06 9.24 17.07 9.23"/>
        <polygon class="cls-1" points="2.71 11.3 6.46 13.47 6.95 13.19 6.95 12.74 2.71 10.29 2.71 11.31 2.71 11.3"/>
        <polygon class="cls-1" points="2.71 9.54 6.95 7.09 6.95 6.07 2.71 8.52 2.71 9.54"/>
        <polygon class="cls-1" points="2.27 19.67 6.95 22.37 6.95 21.35 3.15 19.16 2.27 19.67"/>
      </g>
    </g>
  </g>
</svg>