<?xml version="1.0" encoding="UTF-8"?>
<svg id="_レイヤー_2" data-name="レイヤー_2" xmlns="http://www.w3.org/2000/svg" xmlns:xlink="http://www.w3.org/1999/xlink" viewBox="0 0 56.69 32.76">
  <defs>
    <style>
      .cls-1 {
        fill: #050101;
      }

      .cls-2 {
        clip-path: url(#clippath);
      }
    </style>
    <clipPath id="clippath">
      <path class="cls-1" d="M27.34,12.86v-7.91l1.07-.62,6.85,3.95-2.13,1.23-3.65-2.11v4.21l-2.13,1.23ZM37.5,16.4v.75l.24.14-.24.14v.75l.57-.33v1.88l-1.63.94v-.63l-.65.38v.25l-.22-.13-.65.38.24.14.95.55h0l2.6-1.5v-3.01h0s-1.22-.7-1.22-.7ZM34.8,12.33v5.56s-5.33,3.08-5.33,3.08v-5.56l-2.13,1.23v6.91l1.07.49,8.53-4.93v-8.02l-2.13,1.23ZM36.89,9.23l-1.07-.62-13.86,8V.62l-1.07-.62-1.07.62v18.47l1.07.62,8.53-4.93h0l7.46-4.31v-1.23ZM22.53,11.3l3.75,2.17.49-.28v-.45l-4.24-2.45v1.02ZM22.53,9.54l4.24-2.45v-1.02l-4.24,2.45v1.02ZM22.09,19.67l4.68,2.7v-1.02l-3.8-2.19-.88.51ZM3.6,32.66l.09-.34c-.13.12-.26.21-.4.29-.04.02-.07.04-.11.05h.42ZM1.14,32.66s-.06-.05-.08-.08c-.12-.15-.18-.34-.18-.58v-3.84c0-.25.08-.46.23-.61.02-.02.04-.04.07-.06H0s.04.03.06.05c.15.15.23.35.23.61v3.84c0,.26-.08.47-.23.61-.02.02-.04.03-.06.05h1.14ZM8.19,32.7s.03,0,.04-.01c-.07-.03-.13-.06-.18-.11-.19-.14-.28-.38-.28-.69v-1.96c0-.3-.08-.53-.24-.68-.16-.15-.42-.23-.77-.23.06.04.12.08.17.12.22.2.33.46.33.77v1.97s-.03.06-.03.09h.03v.25c0,.06,0,.13.03.2.02.06.04.11.08.17.03.05.08.08.15.11.07.03.17.05.29.05s.25-.02.38-.06ZM6.3,32.68s.05-.03.07-.04h0c-.2,0-.37-.07-.51-.19-.14-.13-.21-.34-.21-.61,0-.22.06-.41.19-.56.03-.04.07-.08.11-.12-.05.01-.1.03-.16.05-.19.07-.36.17-.49.3-.11.11-.17.26-.17.47,0,.26.07.45.21.58.14.14.34.2.6.2.15,0,.27-.03.37-.07ZM5.52,29.92l.18-.73s-.06.02-.08.04c-.12.06-.22.13-.28.21-.05.06-.08.13-.08.2,0,.05,0,.09.02.12.02.04.05.07.09.09.04.03.09.05.13.06,0,0,0,0,0,0ZM11.6,32.7c-.06,0-.12-.01-.18-.02-.13-.02-.25-.09-.36-.18-.1-.09-.18-.22-.23-.39-.05-.15-.07-.34-.07-.58v-3.27l-1.08.89h.55v2.52c0,.26.03.47.08.62.05.14.11.24.19.31.07.07.16.11.26.13.13.03.26.04.4.04.16,0,.31-.02.45-.06ZM15.23,32.7c-.06,0-.12-.01-.18-.02-.13-.02-.25-.09-.36-.18-.1-.09-.18-.22-.23-.39-.05-.15-.07-.34-.07-.58v-3.27l-1.08.89h.54v2.52c0,.26.03.47.08.62.05.14.11.24.19.31.07.07.16.11.26.13.13.03.26.04.4.04.16,0,.31-.02.45-.06ZM18.32,32.66s-.03-.02-.04-.04c-.14-.15-.22-.36-.22-.63v-2.92l-.95.27.42.09v2.56c0,.27-.07.48-.22.63-.01.01-.03.02-.04.04h1.04ZM22.53,32.52c.08-.05.15-.11.22-.17,0,0,0,0,0,0-.24.09-.5.13-.79.13-.15,0-.31-.03-.48-.08-.18-.06-.34-.16-.49-.29-.15-.14-.27-.32-.36-.54-.09-.22-.14-.49-.14-.81s.03-.62.1-.85c.07-.24.16-.44.27-.59.04-.05.07-.09.11-.14-.14.07-.28.16-.41.28-.17.15-.31.35-.43.6-.11.24-.17.54-.17.89s.05.62.14.84c.09.22.22.41.37.55.15.14.33.25.54.31.21.07.43.1.66.1.33,0,.61-.08.86-.24ZM26.82,32.52c.08-.05.16-.11.23-.17,0,0,0,0-.01,0-.24.09-.5.13-.79.13-.15,0-.31-.03-.48-.08-.18-.06-.34-.16-.49-.29-.15-.14-.27-.32-.36-.54-.09-.22-.14-.49-.14-.81,0-.1,0-.19,0-.26,0-.07.01-.15.03-.23v-.07s0,0,0,0l.02-.11v-.04h0l.03-.16c.04-.18.1-.33.18-.47.05-.08.1-.15.16-.22-.13.07-.25.15-.36.25-.17.15-.32.35-.43.6-.11.24-.17.54-.17.89s.05.62.14.84c.09.22.22.41.37.55.16.14.34.25.54.32.21.07.43.1.65.1.33,0,.61-.08.86-.24ZM27.35,30.05c-.01-.1-.04-.19-.07-.28-.05-.15-.13-.28-.24-.39-.08-.09-.19-.16-.32-.22.13.18.2.44.2.79v.1h.42ZM33.29,32.69s-.07-.05-.1-.08c-.15-.15-.22-.35-.22-.61v-3.84c0-.23.06-.43.18-.57.04-.04.08-.08.13-.11-.1,0-.21,0-.32,0-.25,0-.5,0-.76.01-.04,0-.08,0-.11,0,.02.02.05.04.07.06.15.15.23.35.23.61v3.84c0,.26-.08.47-.23.61-.02.02-.04.04-.07.06.04,0,.08,0,.11,0,.26,0,.51,0,.76.01.11,0,.22,0,.33,0ZM35.42,32.53c.36-.11.67-.28.93-.5.26-.21.46-.49.61-.81.15-.32.22-.71.22-1.14s-.08-.82-.22-1.15c-.15-.32-.35-.6-.61-.82-.26-.22-.57-.39-.93-.5-.03-.01-.06-.02-.1-.03.23.13.44.31.6.52.19.24.33.54.43.88.09.33.14.7.14,1.09s-.05.76-.14,1.09c-.1.33-.24.63-.43.87-.16.21-.36.38-.59.52.03,0,.06-.02.1-.03ZM40.95,32.52c.08-.05.16-.11.23-.17,0,0,0,0-.01,0-.24.09-.5.13-.79.13-.15,0-.31-.03-.48-.08-.18-.06-.34-.16-.49-.29-.15-.14-.27-.32-.36-.54-.09-.22-.14-.49-.14-.81,0-.1,0-.19,0-.26,0-.07.01-.15.03-.23v-.07s0,0,0,0l.02-.11v-.04h0l.03-.16c.04-.18.1-.33.18-.47.05-.08.1-.15.16-.22-.13.07-.25.15-.36.25-.17.15-.32.35-.43.6-.11.24-.17.54-.17.89s.05.62.14.84c.09.22.22.41.38.55.16.14.34.25.54.32.21.07.43.1.65.1.33,0,.61-.08.86-.24ZM41.48,30.05c-.01-.1-.04-.19-.07-.28-.05-.15-.13-.28-.24-.39-.08-.09-.19-.16-.32-.22.13.18.2.44.2.79v.1h.42ZM44.19,32.66s0,0-.01,0c-.11-.08-.19-.19-.23-.32-.03-.1-.05-.21-.05-.34v-4.34c0-.28.08-.51.24-.7-.09.05-.18.1-.26.16-.15.11-.27.25-.37.42-.09.16-.14.36-.14.59v3.88c0,.27-.07.48-.22.63-.01.01-.03.02-.04.04h1.08ZM45.58,27.65s0,0,.01,0c.05-.01.09-.03.12-.06.04-.03.07-.06.09-.11.02-.03.03-.07.03-.12,0-.09-.02-.17-.06-.24-.04-.07-.09-.13-.16-.18-.06-.04-.14-.08-.22-.11l.19.82ZM48.67,32.52c.08-.05.16-.11.23-.17,0,0,0,0-.01,0-.24.09-.5.13-.79.13-.15,0-.31-.03-.48-.08-.18-.06-.34-.16-.49-.29-.15-.14-.27-.32-.36-.54-.09-.22-.14-.49-.14-.81,0-.1,0-.19,0-.26,0-.07.01-.15.03-.23v-.07s0,0,0,0l.02-.11v-.04h0l.03-.16c.04-.18.1-.33.18-.47.05-.08.1-.15.16-.22-.13.07-.25.15-.36.25-.17.15-.32.35-.43.6-.11.24-.17.54-.17.89s.05.62.14.84c.09.22.22.41.38.55.16.14.34.25.54.32.21.07.43.1.65.1.33,0,.61-.08.86-.24ZM49.2,30.05c-.01-.1-.04-.19-.07-.28-.05-.15-.13-.28-.24-.39-.08-.09-.19-.16-.32-.22.13.18.2.44.2.79v.1h.42ZM52.96,32.52c.08-.05.15-.11.22-.17,0,0,0,0,0,0-.24.09-.5.13-.79.13-.15,0-.31-.03-.48-.08-.18-.06-.34-.16-.49-.29-.15-.14-.27-.32-.36-.54-.09-.22-.14-.49-.14-.81s.03-.62.1-.85c.07-.24.16-.44.27-.59.03-.05.07-.09.11-.14-.14.07-.28.16-.41.28-.17.15-.31.35-.43.6-.11.24-.17.54-.17.89s.05.62.14.84c.09.22.22.41.37.55.15.14.33.25.54.31.21.07.43.1.66.1.33,0,.61-.08.86-.24ZM56.69,32.7c-.06,0-.12-.01-.18-.02-.13-.03-.25-.09-.36-.18-.1-.09-.18-.22-.23-.39-.05-.15-.07-.34-.07-.58v-3.27l-1.08.89h.54v2.52c0,.26.03.47.08.62.05.14.11.24.19.31.07.07.16.11.26.13.13.03.26.04.4.04.16,0,.31-.02.45-.06ZM17.39,27.31v.44l.38.22.38-.22v-.44l-.38-.22-.38.22Z"/>
    </clipPath>
  </defs>
  <g id="_デザインデータ__x28_台紙面_x29_" data-name="デザインデータ__x28_台紙面_x29_">
    <g>
      <path class="cls-1" d="M27.34,12.86v-7.91l1.07-.62,6.85,3.95-2.13,1.23-3.65-2.11v4.21l-2.13,1.23ZM37.5,16.4v.75l.24.14-.24.14v.75l.57-.33v1.88l-1.63.94v-.63l-.65.38v.25l-.22-.13-.65.38.24.14.95.55h0l2.6-1.5v-3.01h0s-1.22-.7-1.22-.7ZM34.8,12.33v5.56s-5.33,3.08-5.33,3.08v-5.56l-2.13,1.23v6.91l1.07.49,8.53-4.93v-8.02l-2.13,1.23ZM36.89,9.23l-1.07-.62-13.86,8V.62l-1.07-.62-1.07.62v18.47l1.07.62,8.53-4.93h0l7.46-4.31v-1.23ZM22.53,11.3l3.75,2.17.49-.28v-.45l-4.24-2.45v1.02ZM22.53,9.54l4.24-2.45v-1.02l-4.24,2.45v1.02ZM22.09,19.67l4.68,2.7v-1.02l-3.8-2.19-.88.51ZM3.6,32.66l.09-.34c-.13.12-.26.21-.4.29-.04.02-.07.04-.11.05h.42ZM1.14,32.66s-.06-.05-.08-.08c-.12-.15-.18-.34-.18-.58v-3.84c0-.25.08-.46.23-.61.02-.02.04-.04.07-.06H0s.04.03.06.05c.15.15.23.35.23.61v3.84c0,.26-.08.47-.23.61-.02.02-.04.03-.06.05h1.14ZM8.19,32.7s.03,0,.04-.01c-.07-.03-.13-.06-.18-.11-.19-.14-.28-.38-.28-.69v-1.96c0-.3-.08-.53-.24-.68-.16-.15-.42-.23-.77-.23.06.04.12.08.17.12.22.2.33.46.33.77v1.97s-.03.06-.03.09h.03v.25c0,.06,0,.13.03.2.02.06.04.11.08.17.03.05.08.08.15.11.07.03.17.05.29.05s.25-.02.38-.06ZM6.3,32.68s.05-.03.07-.04h0c-.2,0-.37-.07-.51-.19-.14-.13-.21-.34-.21-.61,0-.22.06-.41.19-.56.03-.04.07-.08.11-.12-.05.01-.1.03-.16.05-.19.07-.36.17-.49.3-.11.11-.17.26-.17.47,0,.26.07.45.21.58.14.14.34.2.6.2.15,0,.27-.03.37-.07ZM5.52,29.92l.18-.73s-.06.02-.08.04c-.12.06-.22.13-.28.21-.05.06-.08.13-.08.2,0,.05,0,.09.02.12.02.04.05.07.09.09.04.03.09.05.13.06,0,0,0,0,0,0ZM11.6,32.7c-.06,0-.12-.01-.18-.02-.13-.02-.25-.09-.36-.18-.1-.09-.18-.22-.23-.39-.05-.15-.07-.34-.07-.58v-3.27l-1.08.89h.55v2.52c0,.26.03.47.08.62.05.14.11.24.19.31.07.07.16.11.26.13.13.03.26.04.4.04.16,0,.31-.02.45-.06ZM15.23,32.7c-.06,0-.12-.01-.18-.02-.13-.02-.25-.09-.36-.18-.1-.09-.18-.22-.23-.39-.05-.15-.07-.34-.07-.58v-3.27l-1.08.89h.54v2.52c0,.26.03.47.08.62.05.14.11.24.19.31.07.07.16.11.26.13.13.03.26.04.4.04.16,0,.31-.02.45-.06ZM18.32,32.66s-.03-.02-.04-.04c-.14-.15-.22-.36-.22-.63v-2.92l-.95.27.42.09v2.56c0,.27-.07.48-.22.63-.01.01-.03.02-.04.04h1.04ZM22.53,32.52c.08-.05.15-.11.22-.17,0,0,0,0,0,0-.24.09-.5.13-.79.13-.15,0-.31-.03-.48-.08-.18-.06-.34-.16-.49-.29-.15-.14-.27-.32-.36-.54-.09-.22-.14-.49-.14-.81s.03-.62.1-.85c.07-.24.16-.44.27-.59.04-.05.07-.09.11-.14-.14.07-.28.16-.41.28-.17.15-.31.35-.43.6-.11.24-.17.54-.17.89s.05.62.14.84c.09.22.22.41.37.55.15.14.33.25.54.31.21.07.43.1.66.1.33,0,.61-.08.86-.24ZM26.82,32.52c.08-.05.16-.11.23-.17,0,0,0,0-.01,0-.24.09-.5.13-.79.13-.15,0-.31-.03-.48-.08-.18-.06-.34-.16-.49-.29-.15-.14-.27-.32-.36-.54-.09-.22-.14-.49-.14-.81,0-.1,0-.19,0-.26,0-.07.01-.15.03-.23v-.07s0,0,0,0l.02-.11v-.04h0l.03-.16c.04-.18.1-.33.18-.47.05-.08.1-.15.16-.22-.13.07-.25.15-.36.25-.17.15-.32.35-.43.6-.11.24-.17.54-.17.89s.05.62.14.84c.09.22.22.41.37.55.16.14.34.25.54.32.21.07.43.1.65.1.33,0,.61-.08.86-.24ZM27.35,30.05c-.01-.1-.04-.19-.07-.28-.05-.15-.13-.28-.24-.39-.08-.09-.19-.16-.32-.22.13.18.2.44.2.79v.1h.42ZM33.29,32.69s-.07-.05-.1-.08c-.15-.15-.22-.35-.22-.61v-3.84c0-.23.06-.43.18-.57.04-.04.08-.08.13-.11-.1,0-.21,0-.32,0-.25,0-.5,0-.76.01-.04,0-.08,0-.11,0,.02.02.05.04.07.06.15.15.23.35.23.61v3.84c0,.26-.08.47-.23.61-.02.02-.04.04-.07.06.04,0,.08,0,.11,0,.26,0,.51,0,.76.01.11,0,.22,0,.33,0ZM35.42,32.53c.36-.11.67-.28.93-.5.26-.21.46-.49.61-.81.15-.32.22-.71.22-1.14s-.08-.82-.22-1.15c-.15-.32-.35-.6-.61-.82-.26-.22-.57-.39-.93-.5-.03-.01-.06-.02-.1-.03.23.13.44.31.6.52.19.24.33.54.43.88.09.33.14.7.14,1.09s-.05.76-.14,1.09c-.1.33-.24.63-.43.87-.16.21-.36.38-.59.52.03,0,.06-.02.1-.03ZM40.95,32.52c.08-.05.16-.11.23-.17,0,0,0,0-.01,0-.24.09-.5.13-.79.13-.15,0-.31-.03-.48-.08-.18-.06-.34-.16-.49-.29-.15-.14-.27-.32-.36-.54-.09-.22-.14-.49-.14-.81,0-.1,0-.19,0-.26,0-.07.01-.15.03-.23v-.07s0,0,0,0l.02-.11v-.04h0l.03-.16c.04-.18.1-.33.18-.47.05-.08.1-.15.16-.22-.13.07-.25.15-.36.25-.17.15-.32.35-.43.6-.11.24-.17.54-.17.89s.05.62.14.84c.09.22.22.41.38.55.16.14.34.25.54.32.21.07.43.1.65.1.33,0,.61-.08.86-.24ZM41.48,30.05c-.01-.1-.04-.19-.07-.28-.05-.15-.13-.28-.24-.39-.08-.09-.19-.16-.32-.22.13.18.2.44.2.79v.1h.42ZM44.19,32.66s0,0-.01,0c-.11-.08-.19-.19-.23-.32-.03-.1-.05-.21-.05-.34v-4.34c0-.28.08-.51.24-.7-.09.05-.18.1-.26.16-.15.11-.27.25-.37.42-.09.16-.14.36-.14.59v3.88c0,.27-.07.48-.22.63-.01.01-.03.02-.04.04h1.08ZM45.58,27.65s0,0,.01,0c.05-.01.09-.03.12-.06.04-.03.07-.06.09-.11.02-.03.03-.07.03-.12,0-.09-.02-.17-.06-.24-.04-.07-.09-.13-.16-.18-.06-.04-.14-.08-.22-.11l.19.82ZM48.67,32.52c.08-.05.16-.11.23-.17,0,0,0,0-.01,0-.24.09-.5.13-.79.13-.15,0-.31-.03-.48-.08-.18-.06-.34-.16-.49-.29-.15-.14-.27-.32-.36-.54-.09-.22-.14-.49-.14-.81,0-.1,0-.19,0-.26,0-.07.01-.15.03-.23v-.07s0,0,0,0l.02-.11v-.04h0l.03-.16c.04-.18.1-.33.18-.47.05-.08.1-.15.16-.22-.13.07-.25.15-.36.25-.17.15-.32.35-.43.6-.11.24-.17.54-.17.89s.05.62.14.84c.09.22.22.41.38.55.16.14.34.25.54.32.21.07.43.1.65.1.33,0,.61-.08.86-.24ZM49.2,30.05c-.01-.1-.04-.19-.07-.28-.05-.15-.13-.28-.24-.39-.08-.09-.19-.16-.32-.22.13.18.2.44.2.79v.1h.42ZM52.96,32.52c.08-.05.15-.11.22-.17,0,0,0,0,0,0-.24.09-.5.13-.79.13-.15,0-.31-.03-.48-.08-.18-.06-.34-.16-.49-.29-.15-.14-.27-.32-.36-.54-.09-.22-.14-.49-.14-.81s.03-.62.1-.85c.07-.24.16-.44.27-.59.03-.05.07-.09.11-.14-.14.07-.28.16-.41.28-.17.15-.31.35-.43.6-.11.24-.17.54-.17.89s.05.62.14.84c.09.22.22.41.37.55.15.14.33.25.54.31.21.07.43.1.66.1.33,0,.61-.08.86-.24ZM56.69,32.7c-.06,0-.12-.01-.18-.02-.13-.03-.25-.09-.36-.18-.1-.09-.18-.22-.23-.39-.05-.15-.07-.34-.07-.58v-3.27l-1.08.89h.54v2.52c0,.26.03.47.08.62.05.14.11.24.19.31.07.07.16.11.26.13.13.03.26.04.4.04.16,0,.31-.02.45-.06ZM17.39,27.31v.44l.38.22.38-.22v-.44l-.38-.22-.38.22Z"/>
      <g class="cls-2">
        <rect class="cls-1" x="-4.23" y="-2.24" width="64.23" height="38.5"/>
      </g>
    </g>
  </g>
</svg>